<svg width="89" height="23" viewBox="0 0 89 23" fill="none" xmlns="http://www.w3.org/2000/svg">
<path d="M6.65188 2.40442C6.2598 2.54867 5.85203 2.69293 5.45995 2.85321C5.06787 3.01349 4.67579 3.17378 4.29939 3.35009C3.53091 3.70271 2.79379 4.08739 2.11941 4.56823C1.79006 4.80866 1.4764 5.08114 1.22547 5.36965C0.974534 5.67419 0.802018 5.99475 0.754968 6.33134C0.707918 6.65191 0.802018 6.9885 0.990217 7.29304C1.17842 7.59758 1.44503 7.87006 1.7587 8.11048C2.07236 8.35091 2.40171 8.5753 2.76243 8.76764C3.12314 8.95998 3.48386 9.13629 3.86026 9.29657C4.61305 9.61714 5.39722 9.87359 6.19706 10.098C6.99691 10.3224 7.79676 10.5147 8.61229 10.675C9.42782 10.8353 10.2433 10.9635 11.0746 11.0757C11.9058 11.1879 12.7213 11.2681 13.5525 11.3322C14.3837 11.3963 15.2149 11.4283 16.0462 11.4444C16.8774 11.4604 17.7086 11.4604 18.5555 11.4283C18.9789 11.4123 19.3867 11.3963 19.8101 11.3802C20.2336 11.3642 20.6414 11.3322 21.0648 11.3001C22.7272 11.1719 24.3897 10.9315 26.0364 10.6109C26.8519 10.4506 27.6831 10.2583 28.4987 10.0499C28.9064 9.93771 29.3142 9.82551 29.722 9.69728C30.1297 9.58508 30.5218 9.44083 30.9296 9.3126C30.5532 9.50494 30.1611 9.68125 29.7847 9.85756C29.3926 10.0339 29.0005 10.1942 28.6085 10.3544C27.8086 10.659 27.0088 10.9315 26.1932 11.1719C24.5622 11.6527 22.8841 11.9893 21.1903 12.2137C20.7668 12.2778 20.3434 12.3259 19.9199 12.358C19.4965 12.4061 19.073 12.4381 18.6496 12.4702C17.8027 12.5343 16.9401 12.5503 16.0932 12.5663C15.2463 12.5663 14.3837 12.5343 13.5368 12.4862C12.6899 12.4381 11.8274 12.3419 10.9805 12.2458C10.1336 12.1336 9.28667 11.9893 8.43977 11.813C7.59288 11.6367 6.76166 11.4283 5.93045 11.1719C5.09924 10.9154 4.2837 10.6269 3.49954 10.2422C2.69969 9.87359 1.93121 9.44083 1.22547 8.83175C1.05295 8.6875 0.880435 8.51119 0.723602 8.33488C0.566769 8.15857 0.425619 7.9502 0.300153 7.72581C0.174687 7.50141 0.0805877 7.26099 0.0335378 7.00453C-0.013512 6.74808 -0.0135122 6.45957 0.0492209 6.20312C0.0962707 5.94667 0.206054 5.70624 0.33152 5.49787C0.456986 5.28951 0.613819 5.09717 0.770651 4.93689C1.1 4.60029 1.46072 4.34384 1.83711 4.10342C2.58991 3.65462 3.38976 3.33406 4.20529 3.06158C4.61305 2.93335 5.02082 2.80513 5.42858 2.69293C5.82067 2.58073 6.22843 2.48456 6.65188 2.40442Z" fill="black"/>
<path d="M1.22547 8.65566C0.974534 8.9602 0.802018 9.28077 0.754968 9.61736C0.707918 9.93792 0.802018 10.2745 0.990217 10.5791C1.17842 10.8836 1.44503 11.1561 1.7587 11.3965C2.05668 11.6369 2.40171 11.8613 2.76243 12.0537C3.12314 12.246 3.48386 12.4223 3.86026 12.5826C4.61305 12.9032 5.39722 13.1596 6.19706 13.384C6.99691 13.6084 7.79676 13.8007 8.61229 13.961C9.42782 14.1213 10.2433 14.2495 11.0746 14.3617C11.9058 14.4739 12.7213 14.5541 13.5525 14.6182C14.3837 14.6823 15.2149 14.7143 16.0462 14.7304C16.8774 14.7464 17.7086 14.7464 18.5555 14.7143C18.9789 14.6983 19.3867 14.6823 19.8101 14.6663C20.2336 14.6502 20.6414 14.6182 21.0648 14.5861C22.7272 14.4579 24.3897 14.2175 26.0364 13.8969C26.8519 13.7366 27.6831 13.5443 28.4987 13.3359C28.9064 13.2237 29.3142 13.1115 29.722 12.9833C30.1297 12.8711 30.5218 12.7268 30.9296 12.5986C30.5532 12.791 30.1611 12.9673 29.7847 13.1436C29.3926 13.3199 29.0005 13.4802 28.6085 13.6405C27.8086 13.945 27.0088 14.2175 26.1932 14.4579C24.5622 14.9387 22.8841 15.2753 21.1903 15.4997C20.7668 15.5638 20.3434 15.6119 19.9199 15.644C19.4965 15.6921 19.073 15.7241 18.6496 15.7562C17.8027 15.8203 16.9401 15.8363 16.0932 15.8524C15.2463 15.8524 14.3837 15.8203 13.5368 15.7722C12.6899 15.7241 11.8274 15.644 10.9805 15.5318C10.1336 15.4196 9.28667 15.2753 8.43977 15.099C7.59288 14.9227 6.76166 14.7143 5.93045 14.4579C5.09924 14.2014 4.2837 13.9129 3.49954 13.5283C2.69969 13.1596 1.93121 12.7268 1.22547 12.1178C1.05295 11.9735 0.880435 11.7972 0.723602 11.6209C0.566769 11.4446 0.425619 11.2362 0.300153 11.0118C0.174687 10.7874 0.0805877 10.547 0.0335378 10.2905C-0.013512 10.0341 -0.0135122 9.74559 0.0492209 9.48913C0.0962707 9.23268 0.206054 8.99226 0.33152 8.78389C0.456986 8.57552 0.613819 8.38318 0.770651 8.2229" fill="black"/>
<path d="M1.88416 11.5406C1.55481 11.7811 1.4764 11.9253 1.22547 12.2299C0.974534 12.5344 0.802018 12.855 0.754968 13.1916C0.707918 13.5121 0.802018 13.8487 0.990217 14.1533C1.17842 14.4578 1.44503 14.7303 1.7587 14.9707C2.05668 15.2111 2.40171 15.4355 2.76243 15.6279C3.12314 15.8202 3.48386 15.9965 3.86026 16.1568C4.61305 16.4774 5.39722 16.7338 6.19706 16.9582C6.99691 17.1826 7.79676 17.3749 8.61229 17.5352C9.42782 17.6955 10.2433 17.8237 11.0746 17.9359C11.9058 18.0481 12.7213 18.1283 13.5525 18.1924C14.3837 18.2565 15.2149 18.2886 16.0462 18.3046C16.8774 18.3206 17.7086 18.3206 18.5555 18.2886C18.9789 18.2725 19.3867 18.2565 19.8101 18.2405C20.2336 18.2244 20.6414 18.1924 21.0648 18.1603C22.7272 18.0321 24.3897 17.7917 26.0364 17.4711C26.8519 17.3108 27.6831 17.1185 28.4987 16.9101C28.9064 16.7979 29.3142 16.6857 29.722 16.5575C30.1297 16.4453 30.5218 16.301 30.9296 16.1728C30.5532 16.3652 30.1611 16.5415 29.7847 16.7178C29.3926 16.8941 29.0005 17.0544 28.6085 17.2147C27.8086 17.5192 27.0088 17.7917 26.1932 18.0321C24.5622 18.5129 22.8841 18.8495 21.1903 19.0739C20.7668 19.138 20.3434 19.1861 19.9199 19.2182C19.4965 19.2663 19.073 19.2983 18.6496 19.3304C17.8027 19.3945 16.9401 19.4105 16.0932 19.4266C15.2463 19.4266 14.3837 19.3945 13.5368 19.3464C12.6899 19.2983 11.8274 19.2182 10.9805 19.106C10.1336 18.9938 9.28667 18.8495 8.43977 18.6732C7.59288 18.4969 6.76166 18.2885 5.93045 18.0321C5.09924 17.7756 4.2837 17.4871 3.49954 17.1025C2.69969 16.7338 1.93121 16.301 1.22547 15.692C1.05295 15.5477 0.880435 15.3714 0.723602 15.1951C0.566769 15.0188 0.425619 14.8104 0.300153 14.586C0.174687 14.3616 0.0805877 14.1212 0.0335378 13.8647C-0.013512 13.6083 -0.0135122 13.3198 0.0492209 13.0633C0.0962707 12.8069 0.206054 12.5665 0.33152 12.3581C0.456986 12.1497 0.676552 11.8452 0.833385 11.6689" fill="black"/>
<path d="M1.22547 15.3062C0.974534 15.6107 0.802018 15.9313 0.754968 16.2679C0.707918 16.5884 0.802018 16.925 0.990217 17.2296C1.17842 17.5341 1.44503 17.8066 1.7587 18.047C2.05668 18.2874 2.40171 18.5118 2.76243 18.7042C3.12314 18.8965 3.48386 19.0728 3.86026 19.2331C4.61305 19.5537 5.39722 19.8101 6.19706 20.0345C6.99691 20.2589 7.79676 20.4513 8.61229 20.6115C9.42782 20.7718 10.2433 20.9 11.0746 21.0122C11.9058 21.1244 12.7213 21.2046 13.5525 21.2687C14.3837 21.3328 15.2149 21.3649 16.0462 21.3809C16.8774 21.3969 17.7086 21.3969 18.5555 21.3649C18.9789 21.3488 19.3867 21.3328 19.8101 21.3168C20.2336 21.3007 20.6414 21.2687 21.0648 21.2366C22.7272 21.1084 24.3897 20.868 26.0364 20.5474C26.8519 20.3871 27.6831 20.1948 28.4987 19.9864C28.9064 19.8742 29.3142 19.762 29.722 19.6338C30.1297 19.5216 30.5218 19.3774 30.9296 19.2491C30.5532 19.4415 30.1611 19.6178 29.7847 19.7941C29.3926 19.9704 29.0005 20.1307 28.6085 20.291C27.8086 20.5955 27.0088 20.868 26.1932 21.1084C24.5622 21.5893 22.8841 21.9259 21.1903 22.1502C20.7668 22.2144 20.3434 22.2624 19.9199 22.2945C19.4965 22.3426 19.073 22.3746 18.6496 22.4067C17.8027 22.4708 16.9401 22.4868 16.0932 22.5029C15.2463 22.5029 14.3837 22.4708 13.5368 22.4227C12.6899 22.3746 11.8274 22.2945 10.9805 22.1823C10.1336 22.0701 9.28667 21.9259 8.43977 21.7495C7.59288 21.5732 6.76166 21.3649 5.93045 21.1084C5.09924 20.852 4.2837 20.5634 3.49954 20.1788C2.69969 19.8101 1.93121 19.3774 1.22547 18.7683C1.05295 18.624 0.880435 18.4477 0.723602 18.2714C0.566769 18.0951 0.425619 17.8867 0.300153 17.6623C0.174687 17.4379 0.0805877 17.1975 0.0335378 16.9411C-0.013512 16.6846 -0.0135122 16.3961 0.0492209 16.1396C0.0962707 15.8832 0.206054 15.6428 0.33152 15.4344C0.456986 15.226 0.613819 15.0337 0.770651 14.8734" fill="black"/>
<path d="M22.2878 5.03265C23.9816 7.29263 25.0166 6.55533 25.6126 5.802C26.4909 4.664 22.4916 1.73082 19.9353 1.3782C16.6261 0.817213 14.7441 1.04161 12.5955 1.44231C12.5955 1.44231 8.84719 2.24373 9.12949 3.1894C9.63136 4.82428 10.7606 3.04514 11.8113 3.12528C12.9405 3.22145 13.3483 4.10301 12.7994 4.96853C12.2975 5.75392 7.87483 6.31491 7.56116 7.82156C7.32592 8.95957 8.31396 9.42439 9.12949 9.24808C10.588 8.92752 14.0697 5.20896 15.0107 5.08073C15.936 4.96853 16.4693 5.14484 16.7045 6.21874C17.1593 8.30241 17.6298 10.0976 19.6216 9.24808C21.5977 8.41461 17.9749 4.72811 18.461 3.23748C18.6963 2.51621 19.9196 2.51621 20.2646 2.70855C21.1899 3.1894 22.2878 5.03265 22.2878 5.03265Z" fill="black"/>
<path d="M33.3923 14.1221C33.2512 14.1221 33.0786 14.0901 32.8904 14.042C32.7022 13.9939 32.5768 13.9137 32.5297 13.8336C33.0316 13.4489 33.6119 12.6796 34.2706 11.5255C34.9293 10.3715 35.5566 9.21746 36.1369 8.06342L36.3878 7.58258C36.2623 7.42229 36.1526 7.24598 36.0585 7.03762C35.9173 6.73308 35.8703 6.50868 35.9173 6.3484C35.933 6.26826 35.9957 6.22017 36.1055 6.20415C36.4662 6.18812 36.7956 6.17209 37.1249 6.17209C38.0973 4.34487 38.8815 2.85424 39.5088 1.7002C39.1951 1.87651 38.7403 2.11694 38.16 2.46956C35.7291 3.92813 34.3804 5.13025 34.1137 6.10798L34.0667 6.28429L34.051 6.33237C34.0353 6.38046 34.0039 6.41251 33.9726 6.41251C33.9098 6.41251 33.8158 6.33237 33.6746 6.18812C33.4237 5.94769 33.2668 5.56301 33.2041 5.05011C33.1884 4.8738 33.2041 4.69749 33.2512 4.50515C33.3609 4.1365 33.6432 3.68771 34.1294 3.14275C34.6156 2.59778 35.6821 1.98871 37.3288 1.31552L38.3012 0.930845C39.0853 0.626308 39.744 0.369856 40.2773 0.161489C40.3714 0.129432 40.5752 0.113403 40.8575 0.113403C41.2183 0.113403 41.5006 0.161489 41.7201 0.24163C41.8926 0.305743 41.9711 0.401913 41.9397 0.546167L41.9083 0.594251C41.6417 1.04304 40.7164 2.88629 39.1481 6.14003C40.5125 6.14003 41.579 6.15606 42.3631 6.18812C42.8023 5.29053 43.2414 4.40898 43.6805 3.55948C44.1197 2.70998 44.5117 1.98871 44.8568 1.42772C45.1861 0.866733 45.4214 0.562195 45.5312 0.530138H45.6096C45.7664 0.530138 45.9389 0.562195 46.1271 0.642337C46.2996 0.722478 46.4565 0.818648 46.5506 0.946874C46.6447 1.05907 46.676 1.15524 46.6447 1.26744L46.629 1.33155C46.5349 1.47581 46.2055 2.06885 45.6409 3.11069C45.0763 4.15253 44.449 5.35465 43.7746 6.71705C43.1002 8.07945 42.567 9.28157 42.1593 10.3555C42.0495 10.644 41.9554 10.8844 41.9083 11.1088C41.6888 11.8942 41.7515 12.2789 42.1122 12.2789C42.3161 12.2789 42.567 12.1506 42.8964 11.8942C43.4296 11.4614 44.1981 10.5959 45.2018 9.28157C45.4998 8.88087 45.7821 8.54427 46.0173 8.25576C46.331 7.88711 46.5506 7.7108 46.676 7.7108C46.7858 7.7108 46.8015 7.823 46.7388 8.06342C46.7231 8.09548 46.6917 8.22371 46.6133 8.43207C46.5349 8.64044 46.3153 9.0732 45.9232 9.71434C45.5312 10.3555 45.0763 11.0126 44.5274 11.6698C43.9942 12.343 43.4296 12.904 42.865 13.3688C42.2847 13.8336 41.7515 14.074 41.2496 14.074C40.5439 14.074 40.1047 13.7374 39.9636 13.0642C39.8695 12.6475 39.9165 12.0545 40.1361 11.3172C40.2616 10.8844 40.4341 10.4036 40.6537 9.87462C40.8575 9.4098 41.1869 8.68853 41.6574 7.69477C40.8419 7.63066 39.9165 7.5986 38.9128 7.5986H38.4894L36.529 11.6377C35.8075 13.0642 34.9763 13.8817 34.004 14.0901C33.7844 14.0901 33.5805 14.1221 33.3923 14.1221Z" fill="black"/>
<path d="M46.1422 12.3735C45.4051 12.3735 44.9189 12.0369 44.668 11.3477C44.5582 11.0111 44.5739 10.5623 44.7307 10.0494C44.8718 9.5525 45.1384 8.95945 45.5148 8.28626C46.001 7.48485 46.5813 6.81166 47.24 6.2667C47.9144 5.72174 48.5731 5.35309 49.2161 5.16075C49.3729 5.12869 49.5141 5.09664 49.6552 5.09664C50.5021 5.09664 50.8942 5.57748 50.8628 6.53918C50.8628 6.68343 50.8315 6.84372 50.7844 7.02003C50.6433 7.53293 50.3139 8.15804 49.7807 8.91136C51.2706 7.70924 52.6821 6.21862 54.0309 4.45551L54.3445 3.91055H53.6231C53.4506 3.91055 53.3094 3.84643 53.231 3.71821C53.1369 3.58998 53.1212 3.4297 53.184 3.25339C53.2624 2.99693 53.3722 2.8046 53.529 2.67637C53.6858 2.54814 53.8584 2.48403 54.0309 2.48403H55.2071C55.8972 1.39411 56.3363 0.833119 56.5245 0.801062L56.6657 0.785034C56.7911 0.785034 56.9323 0.801061 57.0734 0.849146C57.2146 0.881203 57.34 0.945317 57.4185 1.02546C57.4969 1.1056 57.5282 1.18574 57.4969 1.28191L56.7911 2.48403H57.5753C57.7478 2.48403 57.8889 2.54814 57.9674 2.67637C58.0615 2.8046 58.0772 2.96488 58.0301 3.14119C57.9517 3.39764 57.8419 3.58998 57.6851 3.71821C57.5282 3.84643 57.3557 3.91055 57.1832 3.91055H55.9913C54.517 6.45904 53.6231 8.30229 53.2938 9.45632C53.1526 9.9532 53.1683 10.2577 53.3408 10.3699C53.4349 10.402 53.5133 10.418 53.6074 10.418C54.1563 10.418 55.0346 9.76086 56.2736 8.44655C56.9009 7.77336 57.3087 7.45279 57.4655 7.45279C57.5596 7.45279 57.591 7.54896 57.5439 7.72527C57.5439 7.7413 57.5126 7.82144 57.4655 7.9657C57.4185 8.10995 57.2303 8.41449 56.9009 8.89534C56.5716 9.37618 56.1795 9.85703 55.709 10.3539C55.2385 10.8508 54.7366 11.2835 54.2191 11.6362C53.6858 11.9888 53.184 12.1651 52.7135 12.1651C52.0234 12.1651 51.6 11.8445 51.4588 11.1874C51.3647 10.7706 51.4118 10.1936 51.6313 9.47235C51.7411 9.05562 51.9136 8.5908 52.1332 8.06187L52.1489 8.01378C51.5686 8.71902 50.9256 9.39221 50.2041 10.0654C49.4827 10.7386 48.7613 11.2835 48.0555 11.7163C47.3027 12.1651 46.6911 12.3735 46.1422 12.3735ZM46.9577 10.6264C47.4125 10.1295 47.883 9.53647 48.3535 8.81519C48.777 8.17406 49.0593 7.6291 49.1691 7.19634C49.2788 6.79563 49.2161 6.58727 48.9652 6.58727C48.8397 6.58727 48.6515 6.63535 48.4319 6.73152C47.9614 6.97194 47.538 7.35662 47.1773 7.90158C46.895 8.33435 46.6911 8.76711 46.5656 9.18384C46.5343 9.29604 46.4872 9.50441 46.4245 9.82498C46.3617 10.1455 46.4715 10.402 46.7538 10.5943C46.8166 10.6104 46.8793 10.6264 46.9577 10.6264Z" fill="black"/>
<path d="M58.2812 13.8636C57.795 13.8636 57.3402 13.7674 56.901 13.575C56.0071 13.0621 55.6464 12.1806 55.8503 10.9144C55.8973 10.6098 55.9601 10.3053 56.0542 9.98471C56.3364 8.97493 56.8854 7.8209 57.7009 6.50658C58.5164 5.19226 59.5515 3.94206 60.7905 2.75597C62.0452 1.56988 63.2685 0.784489 64.4604 0.415839C65.072 0.255556 65.5896 0.175415 66.013 0.175415C66.4208 0.175415 66.8129 0.287612 67.1736 0.528036C67.5343 0.752432 67.7068 1.15314 67.6755 1.6981C67.6598 1.95455 67.6284 2.21101 67.5657 2.4354C67.4873 2.69185 67.3932 2.91625 67.2363 3.14064C66.7188 3.89397 66.2796 4.39085 65.9189 4.6473C65.6366 4.83964 65.4327 4.93581 65.2916 4.93581C65.2445 4.93581 65.2132 4.91978 65.1818 4.90375C65.1034 4.85567 65.0877 4.77553 65.1191 4.66333C65.1348 4.58319 65.1818 4.48702 65.2602 4.39085C65.5582 3.97411 65.7621 3.57341 65.8719 3.22079C65.9032 3.10859 65.9346 2.90022 65.966 2.62774C65.9973 2.35526 65.8562 2.14689 65.5425 2.00264C65.4484 1.97058 65.3386 1.93852 65.2132 1.93852C64.9152 1.93852 64.5231 2.06675 64.0213 2.30718C63.2528 2.73994 62.3745 3.57341 61.3865 4.80758C60.3984 6.04176 59.5672 7.30799 58.8928 8.62231C58.5635 9.26344 58.3125 9.84046 58.1714 10.3213C58.0302 10.8342 57.9832 11.2509 58.0616 11.6036C58.1714 11.9081 58.391 12.0524 58.736 12.0524C58.8928 12.0524 59.1908 11.9882 59.6299 11.86C60.0691 11.7318 60.7435 11.3952 61.6374 10.8502C62.5313 10.3053 63.4253 9.74429 64.2879 9.16727C64.9622 8.71848 65.5582 8.34983 66.0601 8.0453C66.5619 7.74076 66.8913 7.5965 67.0795 7.58047C67.1109 7.5965 67.1265 7.64459 67.1109 7.69267C67.0638 7.86898 66.7501 8.28572 66.1699 8.94288C65.5896 9.60004 64.7584 10.3854 63.6449 11.299C62.5313 12.2126 61.3708 12.9179 60.1475 13.4308C59.5202 13.7193 58.8771 13.8636 58.2812 13.8636Z" fill="black"/>
<path d="M70.5924 12.3893H70.5454C69.5887 12.3893 69.181 11.7642 69.3221 10.53C68.3184 11.668 67.4087 12.229 66.6089 12.229C66.1384 12.229 65.762 12.0847 65.4797 11.7802C65.1974 11.4757 65.0719 11.0269 65.1347 10.4178C65.1504 10.2415 65.1817 10.0492 65.2445 9.84079C65.3856 9.34392 65.6522 8.7669 66.0286 8.12577C66.5148 7.30833 67.0951 6.63514 67.7538 6.09018C68.4125 5.54522 69.0555 5.22465 69.6671 5.11245C69.9338 5.0804 70.1847 5.04834 70.4042 5.04834C71.1727 5.04834 71.5805 5.28876 71.6589 5.76961C72.0667 5.35288 72.396 5.14451 72.647 5.14451C72.8508 5.14451 73.0077 5.17657 73.1018 5.25671C73.1959 5.33685 73.2272 5.43302 73.1959 5.56125C73.1802 5.62536 73.1175 5.72153 73.0234 5.86578C72.8038 6.18635 72.5058 6.69925 72.098 7.38847C71.6119 8.23797 71.2825 8.97527 71.11 9.56831C70.9688 10.0812 71.0159 10.4178 71.2825 10.5941C71.3609 10.6262 71.455 10.6422 71.5334 10.6422C72.0353 10.6422 72.8822 10.0171 74.0741 8.75087C74.3564 8.46236 74.6074 8.20591 74.8269 7.99754C75.1092 7.74109 75.2974 7.61286 75.4386 7.61286C75.564 7.61286 75.6111 7.70903 75.5484 7.9174C75.5327 7.99754 75.4386 8.18988 75.3131 8.47839C75.1876 8.7669 74.8426 9.24775 74.3251 9.88888C73.8075 10.53 73.2116 11.107 72.5529 11.6199C71.8471 12.1168 71.2041 12.3733 70.5924 12.3893ZM67.5028 10.498C67.691 10.498 67.9263 10.4018 68.1929 10.1934C68.4595 9.98505 68.7732 9.68051 69.1025 9.26377C69.4319 8.84704 69.7299 8.44633 69.9965 8.07768V8.06165C69.9965 8.04563 70.0122 8.0296 70.0435 7.99754C70.2004 7.8052 70.3101 7.62889 70.4042 7.46861L70.4827 7.35641C70.5611 7.19613 70.6238 7.05188 70.6552 6.92365C70.7336 6.68323 70.7179 6.50691 70.6081 6.39472C70.4827 6.26649 70.3101 6.20238 70.0906 6.20238C69.7142 6.20238 69.3064 6.3306 68.8987 6.58705C68.4438 6.89159 68.0361 7.30833 67.6754 7.85329C67.3617 8.31811 67.1578 8.7669 67.0323 9.21569C67.0167 9.29583 66.9696 9.47214 66.9069 9.76065C66.8441 10.0492 66.9539 10.2736 67.2362 10.4659C67.3303 10.4819 67.4244 10.498 67.5028 10.498Z" fill="black"/>
<path d="M78.2772 12.2616C77.9636 12.2616 77.5872 12.1494 77.1167 11.909C76.6462 11.6686 76.3168 11.2198 76.1286 10.5306C75.0622 11.6525 74.3878 12.2135 74.1055 12.2135C73.3997 12.2135 73.1174 11.8128 73.29 11.0274C73.3056 10.9152 73.3213 10.787 73.3684 10.6588C73.4782 10.2581 73.7291 9.68107 74.1212 8.92774C74.2309 8.70335 74.3564 8.4469 74.4976 8.14236C75.3915 6.31514 76.0973 4.9367 76.6148 4.00707C77.1324 3.07743 77.4303 2.5485 77.5088 2.4363L77.5244 2.40424C78.0734 1.49063 78.6066 0.849498 79.1398 0.480848C79.6103 0.160283 80.0965 0 80.6297 0C81.3512 0 81.6021 0.416734 81.3668 1.23418C81.21 1.74708 80.865 2.29204 80.2847 2.837C79.7671 3.33388 78.8261 4.24749 77.4931 5.57784C77.2265 6.13882 76.9285 6.76393 76.6148 7.46917L76.0973 8.60718L76.8657 7.75768C77.3676 7.19669 78.0106 6.49145 78.7948 5.65798C79.2025 5.22521 79.7201 5.01685 80.3317 5.01685C80.3631 5.01685 80.3788 5.01685 80.4102 5.03288C80.4415 5.03288 80.4415 5.06493 80.4258 5.12904C80.3788 5.28933 80.1279 5.69003 79.6731 6.33116C79.2182 6.97229 78.5752 7.75768 77.7754 8.70335C77.9322 9.5849 78.2929 10.1779 78.8418 10.4665C78.9203 10.4985 79.0143 10.5145 79.1084 10.5145C79.6103 10.5145 80.4572 9.87341 81.6491 8.60718C81.9314 8.31867 82.1667 8.07824 82.4019 7.85385C82.6842 7.58137 82.8881 7.45314 83.0136 7.45314C83.1547 7.45314 83.1861 7.56534 83.1234 7.78974C83.1077 7.86988 83.0136 8.06222 82.8724 8.36676C82.7313 8.67129 82.4019 9.15214 81.8687 9.8093C81.3355 10.4665 80.7395 11.0435 80.0808 11.5403C79.4378 12.0212 78.8575 12.2616 78.2772 12.2616ZM78.4184 3.75061C79.2653 2.91714 79.7201 2.34013 79.8142 1.98751C79.8456 1.85928 79.8299 1.79516 79.7201 1.76311C79.5946 1.76311 79.1555 2.42027 78.4184 3.75061Z" fill="black"/>
<path d="M82.9666 12.214C82.4961 12.214 82.0883 12.0697 81.7433 11.7972C81.3826 11.5087 81.21 11.076 81.2257 10.4669C81.2257 10.2265 81.2571 9.95398 81.3512 9.64945C81.4767 9.20065 81.7119 8.67172 82.0256 8.0947C82.3392 7.54974 82.7313 7.03684 83.2175 6.57202C83.688 6.09117 84.2055 5.70649 84.7701 5.40195C85.3191 5.09742 85.868 4.93713 86.4012 4.93713C86.6051 4.93713 86.7462 5.01728 86.7933 5.17756C86.8403 5.30578 86.8403 5.45004 86.809 5.57826L86.7776 5.65841C86.3855 6.52393 85.9621 7.21315 85.5073 7.72605C85.0524 8.23896 84.629 8.60761 84.2212 8.832C83.8135 9.07243 83.4998 9.21668 83.2802 9.28079C83.1548 9.84178 83.2645 10.2265 83.6253 10.4509C83.7194 10.4829 83.8135 10.515 83.9232 10.515C84.1114 10.515 84.3781 10.4348 84.7074 10.2585C85.2249 9.98604 86.0248 9.37696 87.1226 8.39924C87.8127 7.79017 88.2205 7.4696 88.3773 7.4696C88.4557 7.4696 88.4871 7.53371 88.44 7.67797C88.4243 7.71002 88.393 7.80619 88.3302 7.96648C88.2675 8.12676 88.0479 8.44733 87.6872 8.92817C87.3265 9.40902 86.8874 9.9059 86.3698 10.4028C85.8523 10.9157 85.2877 11.3324 84.7074 11.7011C84.0958 12.0377 83.5155 12.214 82.9666 12.214ZM83.5155 8.51144C84.033 8.12676 84.4565 7.72605 84.7701 7.34137C85.272 6.7323 85.5543 6.28351 85.6327 5.995C85.6327 5.97897 85.6327 5.96294 85.617 5.96294C85.1936 6.23542 84.7858 6.60407 84.4094 7.06889C84.033 7.53371 83.735 8.01456 83.5155 8.51144Z" fill="black"/>
<path d="M37.9714 15.8831C39.1633 15.8831 39.9945 16.412 40.5748 17.1653L39.9161 17.5821C39.4927 17.0211 38.7712 16.6364 37.9714 16.6364C36.4971 16.6364 35.3836 17.7904 35.3836 19.4253C35.3836 21.0602 36.4971 22.2303 37.9714 22.2303C38.7712 22.2303 39.4456 21.8295 39.775 21.4929V20.0985H37.4695V19.3291H40.6062V21.8135C39.9788 22.5188 39.0692 22.9996 37.9714 22.9996C36.058 22.9996 34.5211 21.5731 34.5211 19.4413C34.5211 17.3096 36.058 15.8831 37.9714 15.8831Z" fill="black"/>
<path d="M54.1092 15.8831C56.101 15.8831 57.4498 17.4057 57.4498 19.4413C57.4498 21.4769 56.101 22.9996 54.1092 22.9996C52.1174 22.9996 50.7687 21.4769 50.7687 19.4413C50.7844 17.4057 52.1174 15.8831 54.1092 15.8831ZM54.1092 16.6524C52.6036 16.6524 51.6469 17.8385 51.6469 19.4413C51.6469 21.0442 52.6036 22.2303 54.1092 22.2303C55.6148 22.2303 56.5715 21.0281 56.5715 19.4413C56.5872 17.8385 55.6148 16.6524 54.1092 16.6524Z" fill="black"/>
<path d="M67.8323 15.9965H68.6635V22.1032H71.8001V22.8726H67.8323V15.9965Z" fill="black"/>
<path d="M82.0411 15.9965H86.4481V16.7658H82.888V18.9777H86.3853V19.7471H82.888V22.8726H82.0411V15.9965Z" fill="black"/>
</svg>
